# xmcd
#
# Track frame offsets:
# 150
# 3966
# 20422
# 39134
# 52538
# 74903
# 98282
# 114023
# 132268
# 148860
# 170184
# 193723
# 222666
# 237812
# 259335
# 279494
# 300805
# 334498
#
# Disc length: 4611 seconds
#
#
# Revision: 0
# Processed by: cddbd v1.5.2PL0 Copyright (c) Steve Scherf et al.
# Submitted via: FreeRIP 2.945 
#
DISCID=f9120112
DTITLE=ZZ Tops - 8-12-4 Sedalia MO State Fair [CD1]
DYEAR=2004
DGENRE=boots
TTITLE0=message from toad - message from me
TTITLE1=Got Me Under Pressure
TTITLE2=Pincussion
TTITLE3=Waitin' For the Bus
TTITLE4=Jesus Just left Chicago
TTITLE5=I'm Bad and I'm Nationwide
TTITLE6=Manic Mechanic
TTITLE7=Buck Naked
TTITLE8=Mexican Blackbird
TTITLE9=Dusty's Blues
TTITLE10=Cheap Sunglasses
TTITLE11=I'm Goin' Down
TTITLE12=Party on the Patio
TTITLE13=Viva Las Vegas
TTITLE14=Gimmie All Your Lovin'
TTITLE15=Sharp Dressed Man
TTITLE16=Legs
TTITLE17=data
EXTD=
EXTT0=
EXTT1=
EXTT2=
EXTT3=
EXTT4=
EXTT5=
EXTT6=
EXTT7=
EXTT8=
EXTT9=
EXTT10=
EXTT11=
EXTT12=
EXTT13=
EXTT14=
EXTT15=
EXTT16=
EXTT17=
PLAYORDER=
